<?xml version="1.0" encoding="UTF-8"?>
<svg width="220px" height="33px" viewBox="0 0 220 33" version="1.1" xmlns="http://www.w3.org/2000/svg" xmlns:xlink="http://www.w3.org/1999/xlink">
    <!-- Generator: Sketch 46.2 (44496) - http://www.bohemiancoding.com/sketch -->
    <title>TypeSetter</title>
    <desc>Created with Sketch.</desc>
    <defs></defs>
    <g id="App" stroke="none" stroke-width="1" fill="none" fill-rule="evenodd">
        <g id="TyepSetter-7" transform="translate(-50.000000, -22.000000)" fill="#000000">
            <path d="M65.5228509,29.1968322 L65.5228509,47.6399955 L57.2660153,47.6399955 L57.2660153,29.1968322 L50.1738281,29.1968322 L50.1738281,22.6782778 L72.6498037,22.6782778 L72.6498037,29.1968322 L65.5228509,29.1968322 Z M85.3929283,53.4632374 C83.9907078,54.4250911 82.2466498,54.9060108 80.1607019,54.9060108 C78.8743674,54.9060108 77.692348,54.720596 76.6146083,54.3497608 C75.5368686,53.9789256 74.4765277,53.4052986 73.4335538,52.6288625 L76.7884364,47.3618705 C77.6228156,48.126718 78.4861533,48.5033419 79.3784754,48.4917533 C80.2823861,48.4917533 80.9255437,48.1614831 81.3079675,47.500933 L81.5860925,47.0315971 L73.503085,28.1712463 L81.725155,28.1712463 L85.5667564,39.278863 L88.7478109,28.1712463 L96.7091387,28.1712463 L88.7130453,48.9958548 C87.9018434,51.012271 86.7951488,52.5013837 85.3929283,53.4632374 Z M117.474431,29.127301 C118.824503,29.9616801 119.867461,31.1436995 120.603337,32.6733946 C121.339213,34.2030896 121.707146,35.9877071 121.707146,38.0273006 C121.707146,40.0205396 121.353699,41.7645976 120.646794,43.2595269 C119.939889,44.7544562 118.925902,45.9046074 117.604802,46.710015 C116.283702,47.5154227 114.748235,47.9181205 112.998357,47.9181205 C111.955383,47.9181205 110.993544,47.7240143 110.11281,47.3357963 C109.232077,46.9475782 108.473035,46.3826425 107.835662,45.6409721 L107.835662,54.5409717 L99.8221855,54.5409717 L99.8221855,28.1712463 L107.835662,28.1712463 L107.835662,30.1181212 C109.121996,28.6231919 110.767553,27.8757385 112.77238,27.8757385 C114.557025,27.8757385 116.124359,28.2929218 117.474431,29.127301 Z M112.83322,40.5564997 C113.37209,39.866978 113.641521,38.9543895 113.641521,37.8187068 C113.641521,36.6830241 113.37209,35.7704356 112.83322,35.080914 C112.29435,34.3913923 111.590353,34.0466367 110.721209,34.0466367 C109.840475,34.0466367 109.139375,34.3884952 108.617888,35.0722226 C108.096401,35.7559499 107.835662,36.6714355 107.835662,37.8187068 C107.835662,38.9543895 108.096401,39.866978 108.617888,40.5564997 C109.139375,41.2460213 109.840475,41.590777 110.721209,41.590777 C111.590353,41.590777 112.29435,41.2460213 112.83322,40.5564997 Z M140.064918,29.1968322 C141.629379,30.0775657 142.828781,31.3291157 143.66316,32.9515195 C144.497539,34.5739234 144.914723,36.4802194 144.914723,38.6704646 C144.914723,39.12242 144.903134,39.4642785 144.879957,39.6960505 L132.207887,39.6960505 C132.474425,40.460898 132.882917,41.0374222 133.433376,41.4256403 C133.983834,41.8138583 134.653066,42.0079645 135.44109,42.0079645 C136.843311,42.0079645 138.158597,41.4285432 139.386989,40.2696833 L143.558863,44.3720269 C142.51589,45.5308868 141.252751,46.4116071 139.76941,47.0142143 C138.28607,47.6168214 136.605748,47.9181205 134.728395,47.9181205 C132.549738,47.9181205 130.657928,47.5096285 129.052907,46.6926322 C127.447886,45.875636 126.225307,44.7196906 125.385134,43.2247613 C124.54496,41.729832 124.12488,39.985774 124.12488,37.992535 C124.12488,35.9529415 124.550755,34.1741182 125.402517,32.6560117 C126.254279,31.1379053 127.471063,29.9616801 129.052907,29.127301 C130.634751,28.2929218 132.457031,27.8757385 134.519801,27.8757385 C136.652104,27.8757385 138.500457,28.3160987 140.064918,29.1968322 Z M136.275465,34.0118711 C135.835099,33.4903841 135.27306,33.2296445 134.589333,33.2296445 C133.928782,33.2296445 133.378332,33.4787957 132.937965,33.9771054 C132.497599,34.4754152 132.190505,35.1475439 132.016676,35.9935116 L136.866481,35.9935116 C136.912835,35.1938983 136.715832,34.533358 136.275465,34.0118711 Z M165.201988,23.1302309 C167.137284,23.6633065 168.817605,24.3817888 170.243003,25.2856996 L167.253159,31.5435118 C165.850939,30.7786643 164.324164,30.1007414 162.672789,29.5097228 C161.021413,28.9187043 159.685847,28.6231994 158.66605,28.6231994 C157.646254,28.6231994 157.136363,28.9708522 157.136363,29.6661681 C157.136363,30.1876551 157.457942,30.5961471 158.101109,30.8916564 C158.744276,31.1871656 159.761161,31.5145386 161.151792,31.8737852 C162.959614,32.3489178 164.451624,32.8356316 165.627867,33.3339414 C166.804109,33.8322512 167.835479,34.6086757 168.722007,35.6632382 C169.608535,36.7178007 170.051792,38.1257944 170.051792,39.8872614 C170.051792,41.6719057 169.585358,43.1610183 168.652476,44.3546441 C167.719594,45.5482698 166.456455,46.4347843 164.863023,47.0142143 C163.26959,47.5936442 161.499458,47.8833548 159.552574,47.8833548 C157.35074,47.8833548 155.128659,47.5357021 152.886265,46.8403861 C150.643872,46.1450702 148.699913,45.1658483 147.054332,43.9026909 L150.13109,37.71441 C151.394247,38.7573839 152.97317,39.6641782 154.867906,40.43482 C156.762642,41.2054618 158.347359,41.590777 159.622105,41.590777 C160.954794,41.590777 161.621128,41.1620053 161.621128,40.3044489 C161.621128,39.7597848 161.293755,39.3397043 160.639,39.0441951 C159.984244,38.7486858 158.932594,38.4213128 157.484019,38.0620662 C155.722552,37.633288 154.250822,37.1813394 153.068785,36.7062069 C151.886748,36.2310743 150.864069,35.4894151 150.000719,34.481207 C149.137368,33.4729989 148.705699,32.1287415 148.705699,30.4483947 C148.705699,28.8144022 149.143162,27.3861288 150.018102,26.1635316 C150.893041,24.9409343 152.138796,23.9964777 153.755406,23.3301332 C155.372016,22.6637888 157.246443,22.3306216 159.378746,22.3306216 C161.32563,22.3306216 163.266692,22.5971553 165.201988,23.1302309 Z M188.218354,29.1968322 C189.782815,30.0775657 190.982217,31.3291157 191.816596,32.9515195 C192.650975,34.5739234 193.068158,36.4802194 193.068158,38.6704646 C193.068158,39.12242 193.05657,39.4642785 193.033393,39.6960505 L180.361323,39.6960505 C180.627861,40.460898 181.036353,41.0374222 181.586811,41.4256403 C182.13727,41.8138583 182.806501,42.0079645 183.594526,42.0079645 C184.996746,42.0079645 186.312033,41.4285432 187.540424,40.2696833 L191.712299,44.3720269 C190.669325,45.5308868 189.406187,46.4116071 187.922846,47.0142143 C186.439505,47.6168214 184.759184,47.9181205 182.881831,47.9181205 C180.703174,47.9181205 178.811364,47.5096285 177.206343,46.6926322 C175.601322,45.875636 174.378743,44.7196906 173.538569,43.2247613 C172.698396,41.729832 172.278316,39.985774 172.278316,37.992535 C172.278316,35.9529415 172.70419,34.1741182 173.555952,32.6560117 C174.407714,31.1379053 175.624499,29.9616801 177.206343,29.127301 C178.788186,28.2929218 180.610466,27.8757385 182.673237,27.8757385 C184.805539,27.8757385 186.653893,28.3160987 188.218354,29.1968322 Z M184.428901,34.0118711 C183.988534,33.4903841 183.426496,33.2296445 182.742768,33.2296445 C182.082218,33.2296445 181.531768,33.4787957 181.091401,33.9771054 C180.651034,34.4754152 180.343941,35.1475439 180.170112,35.9935116 L185.019917,35.9935116 C185.066271,35.1938983 184.869268,34.533358 184.428901,34.0118711 Z M208.262259,47.6747611 C207.230874,47.8833559 206.182122,47.9876517 205.11597,47.9876517 C202.937314,47.9876517 201.187462,47.3908478 199.866361,46.1972221 C198.545261,45.0035964 197.884721,43.3985995 197.884721,41.3821832 L197.884721,34.289996 L195.207768,34.289996 L195.207768,29.2315978 L197.884721,29.2315978 L197.884721,23.7907777 L205.863431,23.7907777 L205.863431,29.2315978 L210.417728,29.2315978 L210.417728,34.289996 L205.863431,34.289996 L205.863431,40.1653864 C205.863431,40.6868734 206.00539,41.0953654 206.28931,41.3908747 C206.573231,41.6863839 206.952752,41.8225479 207.427884,41.7993707 C207.87984,41.7993707 208.546174,41.6313386 209.426908,41.2952692 L210.765384,46.7882377 C210.128011,47.1706615 209.293645,47.4661663 208.262259,47.6747611 Z M225.976868,47.6747611 C224.945483,47.8833559 223.89673,47.9876517 222.830579,47.9876517 C220.651923,47.9876517 218.90207,47.3908478 217.58097,46.1972221 C216.25987,45.0035964 215.599329,43.3985995 215.599329,41.3821832 L215.599329,34.289996 L212.922376,34.289996 L212.922376,29.2315978 L215.599329,29.2315978 L215.599329,23.7907777 L223.57804,23.7907777 L223.57804,29.2315978 L228.132337,29.2315978 L228.132337,34.289996 L223.57804,34.289996 L223.57804,40.1653864 C223.57804,40.6868734 223.719998,41.0953654 224.003919,41.3908747 C224.28784,41.6863839 224.667361,41.8225479 225.142493,41.7993707 C225.594448,41.7993707 226.260783,41.6313386 227.141516,41.2952692 L228.479993,46.7882377 C227.84262,47.1706615 227.008253,47.4661663 225.976868,47.6747611 Z M246.837766,29.1968322 C248.402227,30.0775657 249.601629,31.3291157 250.436008,32.9515195 C251.270387,34.5739234 251.68757,36.4802194 251.68757,38.6704646 C251.68757,39.12242 251.675982,39.4642785 251.652805,39.6960505 L238.980735,39.6960505 C239.247273,40.460898 239.655765,41.0374222 240.206223,41.4256403 C240.756682,41.8138583 241.425913,42.0079645 242.213938,42.0079645 C243.616158,42.0079645 244.931445,41.4285432 246.159836,40.2696833 L250.331711,44.3720269 C249.288737,45.5308868 248.025599,46.4116071 246.542258,47.0142143 C245.058917,47.6168214 243.378596,47.9181205 241.501243,47.9181205 C239.322586,47.9181205 237.430775,47.5096285 235.825754,46.6926322 C234.220734,45.875636 232.998155,44.7196906 232.157981,43.2247613 C231.317808,41.729832 230.897727,39.985774 230.897727,37.992535 C230.897727,35.9529415 231.323602,34.1741182 232.175364,32.6560117 C233.027126,31.1379053 234.243911,29.9616801 235.825754,29.127301 C237.407598,28.2929218 239.229878,27.8757385 241.292649,27.8757385 C243.424951,27.8757385 245.273305,28.3160987 246.837766,29.1968322 Z M243.048313,34.0118711 C242.607946,33.4903841 242.045907,33.2296445 241.36218,33.2296445 C240.70163,33.2296445 240.15118,33.4787957 239.710813,33.9771054 C239.270446,34.4754152 238.963353,35.1475439 238.789524,35.9935116 L243.639328,35.9935116 C243.685683,35.1938983 243.48868,34.533358 243.048313,34.0118711 Z M266.064679,28.6492736 C267.072887,28.0872266 268.202759,27.8062073 269.454327,27.8062073 L269.454327,35.037457 C268.93284,34.9679254 268.42295,34.9331601 267.92464,34.9331601 C266.545597,34.9331601 265.464976,35.2344591 264.682746,35.8370663 C263.900515,36.4396734 263.509406,37.2740401 263.509406,38.3401912 L263.509406,47.6399955 L255.513312,47.6399955 L255.513312,28.1712463 L263.509406,28.1712463 L263.509406,31.0220274 C264.204722,30.0022307 265.056471,29.2113207 266.064679,28.6492736 Z" id="TypeSetter"></path>
        </g>
    </g>
</svg>
