<?xml version="1.0" encoding="UTF-8"?>
<svg width="162px" height="28px" viewBox="0 0 162 28" version="1.1" xmlns="http://www.w3.org/2000/svg" xmlns:xlink="http://www.w3.org/1999/xlink">
    <!-- Generator: Sketch 45.1 (43504) - http://www.bohemiancoding.com/sketch -->
    <title>TypeSetter</title>
    <desc>Created with Sketch.</desc>
    <defs></defs>
    <g id="App" stroke="none" stroke-width="1" fill="none" fill-rule="evenodd">
        <g id="TyepSetter-1" transform="translate(-50.000000, -25.000000)" fill="#000000">
            <path d="M57.4495996,29.1295984 L51.6383999,29.1295984 C50.9983999,29.1295984 50.64,28.6175985 50.64,28.0287985 C50.64,27.4143985 50.9983999,26.8767986 51.6127999,26.8767986 L65.7183991,26.8767986 C66.332799,26.8767986 66.691199,27.4143985 66.691199,28.0287985 C66.691199,28.6175985 66.307199,29.1295984 65.7183991,29.1295984 L59.9071994,29.1295984 L59.9071994,45.9231974 C59.9071994,46.6143974 59.3695994,46.9727974 58.6783995,46.9727974 C57.9871995,46.9727974 57.4495996,46.6143974 57.4495996,45.9231974 L57.4495996,29.1295984 Z M73.3087986,41.6735977 L76.5343985,33.1743982 C76.7135984,32.6879982 77.0975984,32.5087982 77.5327984,32.5087982 C77.6863984,32.5087982 77.8399984,32.5343982 77.9935984,32.5599982 C78.4799983,32.6879982 78.8383983,33.0463982 78.8383983,33.5071982 C78.8383983,33.6351982 78.8127983,33.7887982 78.7615983,33.9423981 L72.7199987,48.9183972 C71.8239987,51.1199971 70.7743988,52.579197 68.2655989,52.579197 C67.625599,52.579197 67.011199,52.476797 66.4223991,52.2463971 C65.9103991,52.0671971 65.7055991,51.7087971 65.7055991,51.3247971 C65.7055991,51.1199971 65.7567991,50.9407971 65.8335991,50.7359971 C66.0127991,50.3007972 66.3455991,50.0191972 66.780799,50.0191972 C66.934399,50.0191972 67.087999,50.0447972 67.267199,50.1215972 C67.625599,50.2751972 68.086399,50.4543972 68.5471989,50.4543972 C69.6479989,50.4543972 70.1855988,49.4815972 70.6463988,48.3039973 L71.3631988,46.5119974 L66.1919991,33.9679981 C66.1407991,33.8399981 66.1151991,33.6863982 66.1151991,33.5583982 C66.1151991,33.0975982 66.4991991,32.7135982 66.959999,32.5599982 C67.139199,32.5087982 67.318399,32.4831982 67.497599,32.4831982 C67.907199,32.4831982 68.2911989,32.6623982 68.4703989,33.1231982 L71.6959987,41.6223977 C72.0031987,42.4415976 72.2335987,43.3887976 72.4639987,44.1823975 C72.6687987,43.3887976 73.0271987,42.4159976 73.3087986,41.6735977 Z M84.611198,45.7183974 L84.611198,51.3503971 C84.611198,51.9903971 84.175998,52.348797 83.4847981,52.348797 C82.7679981,52.348797 82.3327981,51.9903971 82.3327981,51.3503971 L82.3327981,33.4815982 C82.3327981,32.8159982 82.7679981,32.4831982 83.4847981,32.4831982 C84.124798,32.4831982 84.611198,32.7903982 84.611198,33.4303982 L84.611198,33.8911981 C84.611198,34.2495981 84.585598,34.8639981 84.508798,35.2991981 C85.404798,33.4815982 86.8127979,32.2783982 89.2959977,32.2783982 C93.1359975,32.2783982 95.3119974,35.0687981 95.3119974,39.6255978 C95.3119974,44.1823975 93.0079975,47.2031974 89.1935977,47.2031974 C86.8127979,47.2031974 85.353598,46.0255974 84.483198,44.2335975 C84.585598,44.7199975 84.611198,45.2575975 84.611198,45.7183974 Z M88.9631978,34.2751981 C86.1471979,34.2751981 84.559998,36.553598 84.559998,39.7023978 C84.559998,42.8767976 86.2239979,45.1807975 88.9119978,45.1807975 C91.4975976,45.1807975 92.9567975,42.9791976 92.9567975,39.6767978 C92.9567975,36.348798 91.5487976,34.2751981 88.9631978,34.2751981 Z M109.891197,40.1631978 L100.879997,40.1631978 C100.931197,43.3119976 102.492797,45.2831975 105.257597,45.2831975 C107.100797,45.2831975 108.124797,44.3615975 108.739197,43.0047976 C108.969597,42.5439976 109.302397,42.3647976 109.660797,42.3647976 C109.839997,42.3647976 110.019197,42.4159976 110.198397,42.4671976 C110.633597,42.5951976 110.991996,42.9023976 110.991996,43.3631976 C110.991996,43.5167976 110.966396,43.6703976 110.863996,43.8239976 C110.044797,45.5135975 108.559997,47.2031974 105.231997,47.2031974 C101.033597,47.2031974 98.6015972,44.2335975 98.6015972,39.8047978 C98.6015972,35.3759981 100.905597,32.2783982 105.078397,32.2783982 C108.815997,32.2783982 110.915196,35.1967981 111.171196,38.5503979 L111.171196,38.7551979 C111.171196,39.6767978 110.684796,40.1631978 109.891197,40.1631978 Z M100.956797,38.2943979 L108.457597,38.2943979 C108.739197,38.2943979 108.841597,38.1919979 108.841597,37.9615979 L108.841597,37.8335979 C108.534397,36.015998 107.433597,34.1471981 105.078397,34.1471981 C102.620797,34.1471981 101.289597,35.785598 100.956797,38.2943979 Z M114.051196,41.0079977 C114.230396,42.1855977 114.358396,42.7743976 114.614396,43.3887976 C115.151996,44.8479975 116.099196,45.9487974 117.379196,46.6655974 C118.761596,47.4591973 120.911996,47.9199973 123.087996,47.9199973 C126.083196,47.9199973 128.335995,47.1775974 129.820795,45.7439974 C130.998395,44.5919975 131.612795,42.9535976 131.612795,41.0335977 C131.612795,38.6783979 130.691195,36.963198 128.847995,35.811198 C127.875196,35.1967981 126.646396,34.7615981 124.700796,34.3519981 C121.679996,33.7375982 121.679996,33.7375982 121.167996,33.5071982 C120.348796,33.1231982 119.964796,32.5855982 119.964796,31.8687983 C119.964796,30.6911983 121.116796,29.8463984 122.678396,29.8463984 C124.623996,29.8463984 125.545596,30.5375983 125.852796,32.2015982 L131.279995,31.6127983 C130.947195,30.1535984 130.639995,29.3855984 129.999995,28.5407985 C128.617595,26.6207986 126.134396,25.6223986 122.883196,25.6223986 C117.839996,25.6223986 114.665596,28.1055985 114.665596,32.0479983 C114.665596,34.1215981 115.535996,35.836798 117.148796,36.963198 C118.095996,37.6287979 118.915196,37.9359979 121.270396,38.4479979 C123.932796,39.0623978 124.572796,39.2415978 125.110396,39.4975978 C125.775996,39.8047978 126.185596,40.4959978 126.185596,41.2895977 C126.185596,42.7231976 125.007996,43.5935976 123.036796,43.5935976 C121.731196,43.5935976 120.655996,43.1583976 120.041596,42.3903976 C119.657596,41.8783977 119.478396,41.4175977 119.375996,40.4959978 L114.051196,41.0079977 Z M150.543994,41.0591977 L139.023995,41.0591977 C139.279995,43.1327976 140.483195,44.2335975 142.505595,44.2335975 C143.529595,44.2335975 144.425595,43.9007975 145.091195,43.2863976 C145.475194,42.9279976 145.654394,42.6463976 145.859194,41.9807977 L150.313594,43.2351976 C149.724794,44.5663975 149.340794,45.1551975 148.623994,45.8719974 C147.164794,47.3055973 145.116795,48.0479973 142.582395,48.0479973 C140.073595,48.0479973 138.102395,47.3311973 136.643195,45.8719974 C135.132795,44.3359975 134.313595,42.1599977 134.313595,39.6255978 C134.313595,34.5567981 137.564795,31.2031983 142.454395,31.2031983 C146.447994,31.2031983 149.238394,33.3791982 150.134394,37.1935979 C150.339194,38.0127979 150.441594,39.0879978 150.518394,40.5471977 C150.518394,40.6495977 150.518394,40.8031977 150.543994,41.0591977 Z M139.100795,37.5263979 L145.679994,37.5263979 C145.321595,35.887998 144.220795,35.0175981 142.454395,35.0175981 C140.636795,35.0175981 139.535995,35.836798 139.100795,37.5263979 Z M155.574394,31.8175983 L154.652794,31.8175983 C153.756794,31.8175983 153.116794,31.7663983 152.374394,31.6639983 L152.374394,35.939198 C153.116794,35.836798 153.782394,35.785598 154.601594,35.785598 L155.574394,35.785598 L155.574394,43.6191976 C155.574394,45.3599975 155.932794,46.2303974 156.905594,46.9727974 C157.724794,47.5871973 158.927994,47.8687973 160.668794,47.8687973 C162.051194,47.8687973 163.049593,47.7151973 164.201593,47.3567973 L163.817593,43.4655976 C163.177593,43.7983976 162.691194,43.9263975 162.025594,43.9263975 C161.539194,43.9263975 161.129594,43.8239976 160.847994,43.6447976 C160.515194,43.4143976 160.387194,43.0559976 160.387194,42.3391976 L160.387194,35.785598 L161.462394,35.785598 C162.383994,35.785598 163.049593,35.836798 163.817593,35.939198 L163.817593,31.6895983 C163.023993,31.7919983 162.435194,31.8175983 161.308794,31.8175983 L160.387194,31.8175983 L160.387194,31.2799983 C160.387194,30.0511984 160.463994,28.8223984 160.591994,27.7727985 L155.369594,27.7727985 C155.523194,28.9759984 155.574394,29.9999984 155.574394,31.2799983 L155.574394,31.8175983 Z M168.796793,31.8175983 L167.875193,31.8175983 C166.979193,31.8175983 166.339193,31.7663983 165.596793,31.6639983 L165.596793,35.939198 C166.339193,35.836798 167.004793,35.785598 167.823993,35.785598 L168.796793,35.785598 L168.796793,43.6191976 C168.796793,45.3599975 169.155193,46.2303974 170.127993,46.9727974 C170.947193,47.5871973 172.150393,47.8687973 173.891193,47.8687973 C175.273593,47.8687973 176.271993,47.7151973 177.423993,47.3567973 L177.039993,43.4655976 C176.399993,43.7983976 175.913593,43.9263975 175.247993,43.9263975 C174.761593,43.9263975 174.351993,43.8239976 174.070393,43.6447976 C173.737593,43.4143976 173.609593,43.0559976 173.609593,42.3391976 L173.609593,35.785598 L174.684793,35.785598 C175.606393,35.785598 176.271993,35.836798 177.039993,35.939198 L177.039993,31.6895983 C176.246393,31.7919983 175.657593,31.8175983 174.531193,31.8175983 L173.609593,31.8175983 L173.609593,31.2799983 C173.609593,30.0511984 173.686393,28.8223984 173.814393,27.7727985 L168.591993,27.7727985 C168.745593,28.9759984 168.796793,29.9999984 168.796793,31.2799983 L168.796793,31.8175983 Z M195.561592,41.0591977 L184.041592,41.0591977 C184.297592,43.1327976 185.500792,44.2335975 187.523192,44.2335975 C188.547192,44.2335975 189.443192,43.9007975 190.108792,43.2863976 C190.492792,42.9279976 190.671992,42.6463976 190.876792,41.9807977 L195.331192,43.2351976 C194.742392,44.5663975 194.358392,45.1551975 193.641592,45.8719974 C192.182392,47.3055973 190.134392,48.0479973 187.599992,48.0479973 C185.091192,48.0479973 183.119992,47.3311973 181.660792,45.8719974 C180.150393,44.3359975 179.331193,42.1599977 179.331193,39.6255978 C179.331193,34.5567981 182.582392,31.2031983 187.471992,31.2031983 C191.465592,31.2031983 194.255992,33.3791982 195.151992,37.1935979 C195.356792,38.0127979 195.459192,39.0879978 195.535992,40.5471977 C195.535992,40.6495977 195.535992,40.8031977 195.561592,41.0591977 Z M184.118392,37.5263979 L190.697592,37.5263979 C190.339192,35.887998 189.238392,35.0175981 187.471992,35.0175981 C185.654392,35.0175981 184.553592,35.836798 184.118392,37.5263979 Z M211.318391,31.8175983 C210.115191,31.5615983 209.603191,31.5103983 208.783991,31.5103983 C206.454391,31.5103983 204.918391,32.2015982 203.663991,33.8399981 L203.663991,31.8175983 L198.569591,31.8175983 C198.723191,32.9183982 198.774391,33.8143981 198.774391,35.683198 L198.774391,43.5679976 C198.774391,45.2319975 198.723191,46.1535974 198.569591,47.4335973 L203.868791,47.4335973 C203.715191,46.2047974 203.663991,45.2319975 203.663991,43.5935976 L203.663991,39.5999978 C203.766391,38.4735979 203.945591,37.9359979 204.431991,37.3215979 C205.174391,36.399998 206.172791,35.939198 207.478391,35.939198 C208.271991,35.939198 208.911991,36.067198 210.089591,36.425598 L211.318391,31.8175983 Z" id="TypeSetter"></path>
        </g>
    </g>
</svg>